<svg xmlns="http://www.w3.org/2000/svg" viewBox="0 0 96 96" role="img" aria-label="Douyin mark">
  <defs>
    <filter id="softShadow" x="-20%" y="-20%" width="140%" height="140%">
      <feDropShadow dx="0" dy="7" stdDeviation="6" flood-color="#000000" flood-opacity="0.22"/>
    </filter>
  </defs>
  <rect width="96" height="96" rx="24" fill="#101114"/>
  <g filter="url(#softShadow)">
    <path d="M57 18c3.7 10.8 11.2 17.2 22 18.8v14.4c-8.3-.2-15.5-2.6-22-7v18.9c0 16.2-11.2 25.9-26.2 25.9C16.9 89 6 78.8 6 65.3c0-14.2 10.7-24.2 24.9-24.2 2.2 0 4.5.2 6.8.8v14.8a16 16 0 0 0-6.3-1.3c-5.8 0-10.1 3.9-10.1 9.7 0 5.5 4.2 9.5 9.9 9.5 6.5 0 10.4-4.5 10.4-12.6V18H57Z" fill="#25F4EE"/>
    <path d="M64 18c3.7 10.8 11.2 17.2 22 18.8v14.4c-8.3-.2-15.5-2.6-22-7v18.9C64 79.3 52.8 89 37.8 89 23.9 89 13 78.8 13 65.3c0-14.2 10.7-24.2 24.9-24.2 2.2 0 4.5.2 6.8.8v14.8a16 16 0 0 0-6.3-1.3c-5.8 0-10.1 3.9-10.1 9.7 0 5.5 4.2 9.5 9.9 9.5 6.5 0 10.4-4.5 10.4-12.6V18H64Z" fill="#FE2C55"/>
    <path d="M60.5 18c3.7 10.8 11.2 17.2 22 18.8v11.8c-8.2-.7-15.5-3.5-22-8.4v22.9C60.5 79.3 49.3 89 34.3 89 20.4 89 9.5 78.8 9.5 65.3c0-14.2 10.7-24.2 24.9-24.2 2.2 0 4.5.2 6.8.8v11.8a18.8 18.8 0 0 0-6.3-1.1c-7.5 0-13.2 5.2-13.2 12.5 0 7 5.5 12.2 12.9 12.2 8.4 0 13.8-5.8 13.8-15.3V18h12.1Z" fill="#FFFFFF"/>
  </g>
</svg>
